<svg width="50" height="50" viewBox="0 0 50 50" fill="none" xmlns="http://www.w3.org/2000/svg">
<path d="M18.75 23.9584C20.2083 23.9584 21.4409 23.4462 22.4479 22.4219C23.4548 21.3976 23.9583 20.1737 23.9583 18.75C23.9583 17.2917 23.4548 16.0591 22.4479 15.0521C21.4409 14.0452 20.2083 13.5417 18.75 13.5417C17.2916 13.5417 16.059 14.0452 15.052 15.0521C14.0451 16.0591 13.5416 17.2917 13.5416 18.75C13.5416 20.1737 14.0451 21.3976 15.052 22.4219C16.059 23.4462 17.2916 23.9584 18.75 23.9584ZM37.0833 28.8021C36.5625 28.5938 36.1892 28.2379 35.9635 27.7344C35.7378 27.231 35.7291 26.7362 35.9375 26.25C36.4583 25.0695 36.8489 23.8455 37.1093 22.5782C37.3698 21.3108 37.5 20.0348 37.5 18.75C37.5 17.4653 37.3698 16.198 37.1093 14.948C36.8489 13.698 36.4583 12.4827 35.9375 11.3021C35.7291 10.816 35.7465 10.3386 35.9895 9.86984C36.2326 9.40109 36.6145 9.06255 37.1354 8.85421C37.7257 8.64588 38.2899 8.67192 38.8281 8.93234C39.3663 9.19276 39.7569 9.6181 40 10.2084C40.5902 11.5625 41.0156 12.9601 41.276 14.4011C41.5364 15.8421 41.6666 17.2917 41.6666 18.75C41.6666 20.2431 41.5277 21.7101 41.25 23.1511C40.9722 24.5921 40.5382 26.007 39.9479 27.3959C39.7048 27.9862 39.3142 28.4202 38.776 28.698C38.2378 28.9757 37.6736 29.0105 37.0833 28.8021ZM43.125 34.8438C42.6389 34.6007 42.2916 34.2275 42.0833 33.724C41.875 33.2205 41.9097 32.7431 42.1875 32.2917C43.4027 30.2431 44.3142 28.0903 44.9218 25.8334C45.5295 23.5764 45.8333 21.25 45.8333 18.8542C45.8333 16.4584 45.5208 14.1233 44.8958 11.849C44.2708 9.5747 43.3507 7.39588 42.1354 5.31255C41.8576 4.86116 41.8316 4.38373 42.0573 3.88026C42.2829 3.37678 42.6389 3.00352 43.125 2.76046C43.7152 2.48269 44.3142 2.47401 44.9218 2.73442C45.5295 2.99484 45.9895 3.42019 46.302 4.01046C47.5173 6.30213 48.4375 8.6806 49.0625 11.1459C49.6875 13.6112 50 16.1459 50 18.75C50 21.3542 49.6788 23.915 49.0364 26.4323C48.3941 28.9497 47.4652 31.3542 46.25 33.6459C45.9375 34.2362 45.4861 34.6528 44.8958 34.8959C44.3055 35.1389 43.7152 35.1216 43.125 34.8438ZM8.33329 37.5C8.33329 36.9098 8.13364 36.415 7.73433 36.0157C7.33503 35.6164 6.84024 35.4167 6.24996 35.4167C5.65968 35.4167 5.16489 35.6164 4.76558 36.0157C4.36628 36.415 4.16663 36.9098 4.16663 37.5C4.16663 39.7917 4.9826 41.7535 6.61454 43.3855C8.24649 45.0174 10.2083 45.8334 12.5 45.8334C14.6527 45.8334 16.4149 45.2952 17.7864 44.2188C19.1579 43.1424 20.2083 41.5625 20.9375 39.4792C21.5277 37.7431 22.092 36.5278 22.6302 35.8334C23.1684 35.1389 24.4097 34.0278 26.3541 32.5C28.5069 30.7639 30.2083 28.8021 31.4583 26.6146C32.7083 24.4271 33.3333 21.8056 33.3333 18.75C33.3333 14.6181 31.9357 11.1546 29.1406 8.35942C26.3454 5.56428 22.8819 4.16671 18.75 4.16671C14.618 4.16671 11.1545 5.56428 8.35933 8.35942C5.5642 11.1546 4.16663 14.6181 4.16663 18.75C4.16663 19.3403 4.36628 19.8351 4.76558 20.2344C5.16489 20.6337 5.65968 20.8334 6.24996 20.8334C6.84024 20.8334 7.33503 20.6337 7.73433 20.2344C8.13364 19.8351 8.33329 19.3403 8.33329 18.75C8.33329 15.7987 9.33156 13.3247 11.3281 11.3282C13.3246 9.33164 15.7986 8.33338 18.75 8.33338C21.7013 8.33338 24.1753 9.33164 26.1718 11.3282C28.1684 13.3247 29.1666 15.7987 29.1666 18.75C29.1666 21.1112 28.6979 23.125 27.7604 24.7917C26.8229 26.4584 25.4861 27.9514 23.75 29.2709C21.9444 30.5903 20.5382 31.875 19.5312 33.125C18.5243 34.375 17.7777 35.7292 17.2916 37.1875C16.8055 38.7153 16.2239 39.8438 15.5468 40.573C14.8698 41.3021 13.8541 41.6667 12.5 41.6667C11.3541 41.6667 10.3732 41.2587 9.55725 40.4428C8.74128 39.6268 8.33329 38.6459 8.33329 37.5Z" fill="#3C3C3C"/>
</svg>
