<svg width="30" height="30" viewBox="0 0 30 30" fill="none" xmlns="http://www.w3.org/2000/svg">
<path d="M12.5 26.25C11.125 26.25 9.94792 25.7604 8.96875 24.7812C7.98958 23.8021 7.5 22.625 7.5 21.25C7.5 19.875 7.98958 18.6979 8.96875 17.7188C9.94792 16.7396 11.125 16.25 12.5 16.25C12.9792 16.25 13.4219 16.3073 13.8281 16.4219C14.2344 16.5365 14.625 16.7083 15 16.9375V5C15 4.64583 15.1198 4.34896 15.3594 4.10938C15.599 3.86979 15.8958 3.75 16.25 3.75H21.25C21.6042 3.75 21.901 3.86979 22.1406 4.10938C22.3802 4.34896 22.5 4.64583 22.5 5V7.5C22.5 7.85417 22.3802 8.15104 22.1406 8.39062C21.901 8.63021 21.6042 8.75 21.25 8.75H17.5V21.25C17.5 22.625 17.0104 23.8021 16.0312 24.7812C15.0521 25.7604 13.875 26.25 12.5 26.25Z" fill="#3C3C3C"/>
</svg>
