<svg width="30" height="30" viewBox="0 0 30 30" fill="none" xmlns="http://www.w3.org/2000/svg">
<path d="M15 24.4375C14.7708 24.4375 14.5469 24.4062 14.3281 24.3437C14.1094 24.2812 13.9062 24.1979 13.7188 24.0937C12.8646 23.5729 11.9688 23.177 11.0312 22.9062C10.0938 22.6354 9.125 22.5 8.125 22.5C7.25 22.5 6.39062 22.6145 5.54688 22.8437C4.70312 23.0729 3.89583 23.3958 3.125 23.8125C2.6875 24.0416 2.26562 24.0312 1.85938 23.7812C1.45312 23.5312 1.25 23.1666 1.25 22.6875V7.62496C1.25 7.39579 1.30729 7.17704 1.42188 6.96871C1.53646 6.76038 1.70833 6.60413 1.9375 6.49996C2.89583 5.99996 3.89583 5.62496 4.9375 5.37496C5.97917 5.12496 7.04167 4.99996 8.125 4.99996C9.33333 4.99996 10.5156 5.15621 11.6719 5.46871C12.8281 5.78121 13.9375 6.24996 15 6.87496V22C16.0625 21.3333 17.1771 20.8333 18.3438 20.5C19.5104 20.1666 20.6875 20 21.875 20C22.625 20 23.3594 20.0625 24.0781 20.1875C24.7969 20.3125 25.5208 20.5 26.25 20.75V5.74996C26.5625 5.85413 26.8698 5.9635 27.1719 6.07808C27.474 6.19267 27.7708 6.33329 28.0625 6.49996C28.2917 6.60413 28.4635 6.76038 28.5781 6.96871C28.6927 7.17704 28.75 7.39579 28.75 7.62496V22.6875C28.75 23.1666 28.5469 23.5312 28.1406 23.7812C27.7344 24.0312 27.3125 24.0416 26.875 23.8125C26.1042 23.3958 25.2969 23.0729 24.4531 22.8437C23.6094 22.6145 22.75 22.5 21.875 22.5C20.875 22.5 19.9062 22.6354 18.9688 22.9062C18.0312 23.177 17.1354 23.5729 16.2812 24.0937C16.0938 24.1979 15.8906 24.2812 15.6719 24.3437C15.4531 24.4062 15.2292 24.4375 15 24.4375ZM18.5312 17.8125C18.3229 18 18.099 18.0364 17.8594 17.9218C17.6198 17.8073 17.5 17.6145 17.5 17.3437V7.12496C17.5 7.04163 17.5156 6.9635 17.5469 6.89058C17.5781 6.81767 17.625 6.74996 17.6875 6.68746L22.6875 1.68746C22.8958 1.47913 23.125 1.42704 23.375 1.53121C23.625 1.63538 23.75 1.83329 23.75 2.12496V12.8437C23.75 12.9479 23.7292 13.0364 23.6875 13.1093C23.6458 13.1823 23.5938 13.25 23.5312 13.3125L18.5312 17.8125ZM12.5 20.7812V8.40621C11.8125 8.11454 11.099 7.89058 10.3594 7.73433C9.61979 7.57808 8.875 7.49996 8.125 7.49996C7.35417 7.49996 6.60417 7.57288 5.875 7.71871C5.14583 7.86454 4.4375 8.08329 3.75 8.37496V20.7812C4.47917 20.5104 5.20312 20.3125 5.92188 20.1875C6.64062 20.0625 7.375 20 8.125 20C8.875 20 9.60938 20.0625 10.3281 20.1875C11.0469 20.3125 11.7708 20.5104 12.5 20.7812Z" fill="#3C3C3C"/>
</svg>
