<svg width="50" height="50" viewBox="0 0 50 50" fill="none" xmlns="http://www.w3.org/2000/svg">
<path d="M0 41.6666V35.8854C0 34.7048 0.295139 33.6111 0.885417 32.6041C1.47569 31.5972 2.29167 30.8333 3.33333 30.3125C3.81944 30.0694 4.28819 29.8437 4.73958 29.6354C5.22569 29.4271 5.72917 29.2361 6.25 29.0625V41.6666H0ZM8.33333 27.0833C6.59722 27.0833 5.12153 26.4757 3.90625 25.2604C2.69097 24.0451 2.08333 22.5694 2.08333 20.8333C2.08333 19.0972 2.69097 17.6215 3.90625 16.4062C5.12153 15.191 6.59722 14.5833 8.33333 14.5833C10.0694 14.5833 11.5451 15.191 12.7604 16.4062C13.9757 17.6215 14.5833 19.0972 14.5833 20.8333C14.5833 22.5694 13.9757 24.0451 12.7604 25.2604C11.5451 26.4757 10.0694 27.0833 8.33333 27.0833ZM8.33333 22.9166C8.92361 22.9166 9.40972 22.7257 9.79167 22.3437C10.2083 21.9271 10.4167 21.4236 10.4167 20.8333C10.4167 20.243 10.2083 19.7569 9.79167 19.375C9.40972 18.9583 8.92361 18.75 8.33333 18.75C7.74306 18.75 7.23958 18.9583 6.82292 19.375C6.44097 19.7569 6.25 20.243 6.25 20.8333C6.25 21.4236 6.44097 21.9271 6.82292 22.3437C7.23958 22.7257 7.74306 22.9166 8.33333 22.9166ZM8.33333 41.6666V35.8333C8.33333 34.6528 8.62847 33.5764 9.21875 32.6041C9.84375 31.5972 10.6597 30.8333 11.6667 30.3125C13.8194 29.2361 16.0069 28.4375 18.2292 27.9166C20.4514 27.3611 22.7083 27.0833 25 27.0833C27.2917 27.0833 29.5486 27.3611 31.7708 27.9166C33.9931 28.4375 36.1806 29.2361 38.3333 30.3125C39.3403 30.8333 40.1389 31.5972 40.7292 32.6041C41.3542 33.5764 41.6667 34.6528 41.6667 35.8333V41.6666H8.33333ZM12.5 37.5H37.5V35.8333C37.5 35.4514 37.3958 35.1041 37.1875 34.7916C37.0139 34.4791 36.7708 34.2361 36.4583 34.0625C34.5833 33.125 32.691 32.4305 30.7812 31.9791C28.8715 31.493 26.9444 31.25 25 31.25C23.0556 31.25 21.1285 31.493 19.2188 31.9791C17.309 32.4305 15.4167 33.125 13.5417 34.0625C13.2292 34.2361 12.9687 34.4791 12.7604 34.7916C12.5868 35.1041 12.5 35.4514 12.5 35.8333V37.5ZM25 25C22.7083 25 20.7465 24.184 19.1146 22.5521C17.4826 20.9201 16.6667 18.9583 16.6667 16.6666C16.6667 14.375 17.4826 12.4132 19.1146 10.7812C20.7465 9.14929 22.7083 8.33331 25 8.33331C27.2917 8.33331 29.2535 9.14929 30.8854 10.7812C32.5174 12.4132 33.3333 14.375 33.3333 16.6666C33.3333 18.9583 32.5174 20.9201 30.8854 22.5521C29.2535 24.184 27.2917 25 25 25ZM25 20.8333C26.1458 20.8333 27.1181 20.434 27.9167 19.6354C28.75 18.8021 29.1667 17.8125 29.1667 16.6666C29.1667 15.5208 28.75 14.5486 27.9167 13.75C27.1181 12.9166 26.1458 12.5 25 12.5C23.8542 12.5 22.8646 12.9166 22.0312 13.75C21.2326 14.5486 20.8333 15.5208 20.8333 16.6666C20.8333 17.8125 21.2326 18.8021 22.0312 19.6354C22.8646 20.434 23.8542 20.8333 25 20.8333ZM41.6667 27.0833C39.9306 27.0833 38.4549 26.4757 37.2396 25.2604C36.0243 24.0451 35.4167 22.5694 35.4167 20.8333C35.4167 19.0972 36.0243 17.6215 37.2396 16.4062C38.4549 15.191 39.9306 14.5833 41.6667 14.5833C43.4028 14.5833 44.8785 15.191 46.0938 16.4062C47.309 17.6215 47.9167 19.0972 47.9167 20.8333C47.9167 22.5694 47.309 24.0451 46.0938 25.2604C44.8785 26.4757 43.4028 27.0833 41.6667 27.0833ZM41.6667 22.9166C42.2569 22.9166 42.7431 22.7257 43.125 22.3437C43.5417 21.9271 43.75 21.4236 43.75 20.8333C43.75 20.243 43.5417 19.7569 43.125 19.375C42.7431 18.9583 42.2569 18.75 41.6667 18.75C41.0764 18.75 40.5729 18.9583 40.1562 19.375C39.7743 19.7569 39.5833 20.243 39.5833 20.8333C39.5833 21.4236 39.7743 21.9271 40.1562 22.3437C40.5729 22.7257 41.0764 22.9166 41.6667 22.9166ZM43.75 41.6666V29.0625C44.2708 29.2361 44.7569 29.4271 45.2083 29.6354C45.6944 29.8437 46.1806 30.0694 46.6667 30.3125C47.7083 30.8333 48.5243 31.5972 49.1146 32.6041C49.7049 33.6111 50 34.7048 50 35.8854V41.6666H43.75Z" fill="#494949"/>
</svg>
