<svg width="48" height="35" viewBox="0 0 48 35" fill="none" xmlns="http://www.w3.org/2000/svg">
<path d="M7.67328 35C5.5621 35 3.767 34.2488 2.28798 32.7465C0.808588 31.2437 0.0459277 29.4139 0 27.2571C0 26.9387 0.0151226 26.6246 0.0453676 26.3149C0.0756127 26.0052 0.128075 25.6883 0.202754 25.3643L4.90754 6.39653C5.39781 4.49336 6.39589 2.95148 7.9018 1.77089C9.4077 0.590295 11.1238 0 13.0502 0H34.8938C36.8202 0 38.5363 0.590295 40.0422 1.77089C41.5481 2.95148 42.5462 4.49336 43.0365 6.39653L47.7412 25.3643C47.8159 25.6883 47.8777 26.0146 47.9266 26.3431C47.9755 26.6717 48 26.9952 48 27.3135C48 29.4704 47.2454 31.2908 45.7361 32.7747C44.2265 34.2582 42.4052 35 40.2724 35C38.8035 35 37.4473 34.6114 36.2039 33.8343C34.9601 33.0567 34.0165 32.0035 33.3732 30.6747L31.7831 27.379C31.5534 26.9086 31.2088 26.5558 30.7491 26.3206C30.2895 26.0853 29.8041 25.9677 29.2929 25.9677H18.6511C18.1437 25.9677 17.6592 26.0835 17.1977 26.3149C16.7361 26.5467 16.3906 26.9015 16.1609 27.379L14.5708 30.6747C13.942 32.0182 13.0009 33.075 11.7474 33.845C10.4939 34.615 9.13587 35 7.67328 35ZM7.84691 31.6129C8.65307 31.6129 9.39221 31.3958 10.0643 30.9615C10.7364 30.5272 11.2435 29.9468 11.5855 29.2205L13.1538 25.9807C13.6695 24.916 14.426 24.0832 15.4233 23.4822C16.4206 22.8812 17.4966 22.5806 18.6511 22.5806H29.2929C30.4564 22.5806 31.5342 22.894 32.5263 23.5206C33.5188 24.1476 34.2921 24.9749 34.8462 26.0027L36.4145 29.2205C36.7565 29.9468 37.2636 30.5272 37.9357 30.9615C38.6078 31.3958 39.3518 31.6129 40.1677 31.6129C41.3704 31.6129 42.4013 31.2068 43.2605 30.3947C44.1197 29.5829 44.5607 28.5777 44.5834 27.379C44.5834 27.3587 44.539 26.9577 44.4501 26.176L39.7453 7.26476C39.4552 6.13272 38.8641 5.20352 37.9721 4.47718C37.0804 3.75046 36.0543 3.3871 34.8938 3.3871H13.0502C11.8744 3.3871 10.835 3.75046 9.93214 4.47718C9.02926 5.20352 8.45144 6.13272 8.19865 7.26476L3.49386 26.176C3.43375 26.3729 3.38931 26.7551 3.36056 27.3226C3.36056 28.5359 3.80079 29.5543 4.68126 30.3777C5.56135 31.2012 6.61657 31.6129 7.84691 31.6129ZM27.3326 14.9811C27.8811 14.9811 28.3486 14.7866 28.735 14.3974C29.1211 14.0079 29.3142 13.5367 29.3142 12.9839C29.3142 12.431 29.1211 11.9598 28.735 11.5703C28.3486 11.1812 27.8811 10.9866 27.3326 10.9866C26.784 10.9866 26.3165 11.1812 25.9301 11.5703C25.544 11.9598 25.3509 12.431 25.3509 12.9839C25.3509 13.5367 25.544 14.0079 25.9301 14.3974C26.3165 14.7866 26.784 14.9811 27.3326 14.9811ZM31.8133 10.465C32.3618 10.465 32.8293 10.2704 33.2158 9.88129C33.6019 9.49177 33.7949 9.02059 33.7949 8.46774C33.7949 7.91489 33.6019 7.44371 33.2158 7.05419C32.8293 6.66505 32.3618 6.47048 31.8133 6.47048C31.2648 6.47048 30.7973 6.66505 30.4108 7.05419C30.0247 7.44371 29.8317 7.91489 29.8317 8.46774C29.8317 9.02059 30.0247 9.49177 30.4108 9.88129C30.7973 10.2704 31.2648 10.465 31.8133 10.465ZM31.8133 19.4973C32.3618 19.4973 32.8293 19.3027 33.2158 18.9135C33.6019 18.524 33.7949 18.0528 33.7949 17.5C33.7949 16.9471 33.6019 16.476 33.2158 16.0865C32.8293 15.6973 32.3618 15.5027 31.8133 15.5027C31.2648 15.5027 30.7973 15.6973 30.4108 16.0865C30.0247 16.476 29.8317 16.9471 29.8317 17.5C29.8317 18.0528 30.0247 18.524 30.4108 18.9135C30.7973 19.3027 31.2648 19.4973 31.8133 19.4973ZM36.294 14.9811C36.8426 14.9811 37.3101 14.7866 37.6965 14.3974C38.0826 14.0079 38.2757 13.5367 38.2757 12.9839C38.2757 12.431 38.0826 11.9598 37.6965 11.5703C37.3101 11.1812 36.8426 10.9866 36.294 10.9866C35.7455 10.9866 35.278 11.1812 34.8916 11.5703C34.5055 11.9598 34.3124 12.431 34.3124 12.9839C34.3124 13.5367 34.5055 14.0079 34.8916 14.3974C35.278 14.7866 35.7455 14.9811 36.294 14.9811ZM16.1296 18.2819C16.5153 18.2819 16.8345 18.1546 17.0873 17.9002C17.3401 17.6458 17.4665 17.3242 17.4665 16.9355V14.3302H20.0513C20.4371 14.3302 20.7561 14.203 21.0085 13.9486C21.261 13.6946 21.3872 13.3734 21.3872 12.985C21.3872 12.5962 21.261 12.2745 21.0085 12.0197C20.7561 11.7649 20.4371 11.6375 20.0513 11.6375H17.4665V9.03226C17.4665 8.64349 17.3403 8.32191 17.0879 8.0675C16.8358 7.81309 16.5172 7.68589 16.1318 7.68589C15.7461 7.68589 15.4268 7.81309 15.174 8.0675C14.9213 8.32191 14.7949 8.64349 14.7949 9.03226V11.6375H12.21C11.8243 11.6375 11.5053 11.7647 11.2528 12.0191C11.0004 12.2731 10.8742 12.5944 10.8742 12.9827C10.8742 13.3715 11.0004 13.6933 11.2528 13.9481C11.5053 14.2029 11.8243 14.3302 12.21 14.3302H14.7949V16.9355C14.7949 17.3242 14.9211 17.6458 15.1735 17.9002C15.4255 18.1546 15.7442 18.2819 16.1296 18.2819Z" fill="#494949"/>
</svg>
