<svg width="50" height="50" viewBox="0 0 50 50" fill="currentColor" xmlns="http://www.w3.org/2000/svg">
<path d="M13.1411 44.7916C12.0887 44.7916 11.1979 44.4271 10.4688 43.6979C9.73958 42.9687 9.375 42.0779 9.375 41.0255V8.97446C9.375 7.92203 9.73958 7.03123 10.4688 6.30206C11.1979 5.5729 12.0887 5.20831 13.1411 5.20831H36.8589C37.9113 5.20831 38.8021 5.5729 39.5312 6.30206C40.2604 7.03123 40.625 7.92203 40.625 8.97446V41.0255C40.625 42.0779 40.2604 42.9687 39.5312 43.6979C38.8021 44.4271 37.9113 44.7916 36.8589 44.7916H13.1411ZM13.1411 41.6666H36.8589C37.0193 41.6666 37.1661 41.5998 37.2995 41.4661C37.4332 41.3328 37.5 41.1859 37.5 41.0255V8.97446C37.5 8.81404 37.4332 8.66717 37.2995 8.53383C37.1661 8.40015 37.0193 8.33331 36.8589 8.33331H33.3333V20.3526C33.3333 20.729 33.1764 21.0061 32.8625 21.1838C32.5486 21.3613 32.2314 21.3526 31.9109 21.1578L29.6193 19.7755C29.2988 19.5807 28.9764 19.4833 28.6521 19.4833C28.3274 19.4833 28.0049 19.5807 27.6844 19.7755L25.3927 21.1578C25.0722 21.3526 24.7531 21.3613 24.4354 21.1838C24.1174 21.0061 23.9583 20.729 23.9583 20.3526V8.33331H13.1411C12.9807 8.33331 12.8339 8.40015 12.7005 8.53383C12.5668 8.66717 12.5 8.81404 12.5 8.97446V41.0255C12.5 41.1859 12.5668 41.3328 12.7005 41.4661C12.8339 41.5998 12.9807 41.6666 13.1411 41.6666ZM23.9583 20.3724V20.3526C23.9583 20.729 24.1174 21.0061 24.4354 21.1838C24.7531 21.3613 25.0722 21.3526 25.3927 21.1578L27.6844 19.7755C28.0049 19.5807 28.3274 19.4833 28.6521 19.4833C28.9764 19.4833 29.2988 19.5807 29.6193 19.7755L31.9109 21.1578C32.2314 21.3526 32.5486 21.3613 32.8625 21.1838C33.1764 21.0061 33.3333 20.729 33.3333 20.3526V20.3724C33.3333 20.7356 33.1764 21.0061 32.8625 21.1838C32.5486 21.3613 32.2314 21.3592 31.9109 21.1776L29.6193 19.7755C29.2988 19.5807 28.9764 19.4833 28.6521 19.4833C28.3274 19.4833 28.0049 19.5807 27.6844 19.7755L25.3927 21.1776C25.0722 21.3592 24.7531 21.3613 24.4354 21.1838C24.1174 21.0061 23.9583 20.7356 23.9583 20.3724Z" fill="#494949"/>
</svg>
