<svg width="50" height="50" viewBox="0 0 50 50" fill="none" xmlns="http://www.w3.org/2000/svg">
<path d="M27.0833 45.8333V35.4167L22.7083 31.25L21.0937 38.4375C20.9548 38.9931 20.651 39.4184 20.1823 39.7135C19.7135 40.0087 19.2013 40.1042 18.6458 40L8.33329 37.9167C7.74301 37.8125 7.29163 37.5174 6.97913 37.0312C6.66663 36.5451 6.56246 36.0069 6.66663 35.4167C6.77079 34.8264 7.06593 34.3663 7.55204 34.0365C8.03815 33.7066 8.57635 33.6111 9.16663 33.75L17.0833 35.4167L20.4166 18.5417L16.6666 20V25C16.6666 25.5903 16.467 26.0851 16.0677 26.4844C15.6684 26.8837 15.1736 27.0833 14.5833 27.0833C13.993 27.0833 13.4982 26.8837 13.0989 26.4844C12.6996 26.0851 12.5 25.5903 12.5 25V18.6458C12.5 18.2292 12.6128 17.8559 12.8385 17.526C13.0642 17.1962 13.368 16.9444 13.75 16.7708L20.7291 13.75C21.9444 13.2292 22.8385 12.8906 23.4114 12.7344C23.9843 12.5781 24.5138 12.5 25 12.5C25.7291 12.5 26.4062 12.691 27.0312 13.0729C27.6562 13.4549 28.1597 13.9583 28.5416 14.5833L30.625 17.9167C31.3541 19.0972 32.3003 20.1215 33.4635 20.9896C34.6267 21.8576 35.9722 22.4306 37.5 22.7083C38.0902 22.8125 38.585 23.0729 38.9843 23.4896C39.3836 23.9062 39.5833 24.4097 39.5833 25C39.5833 25.5903 39.3836 26.0764 38.9843 26.4583C38.585 26.8403 38.1076 26.9965 37.552 26.9271C35.677 26.6493 33.9236 26.0677 32.2916 25.1823C30.6597 24.2969 29.2708 23.1944 28.125 21.875L26.875 28.125L30.625 31.6667C30.8333 31.875 30.9895 32.1094 31.0937 32.3698C31.1979 32.6302 31.25 32.8993 31.25 33.1771V45.8333C31.25 46.4236 31.0503 46.9184 30.651 47.3177C30.2517 47.717 29.7569 47.9167 29.1666 47.9167C28.5763 47.9167 28.0816 47.717 27.6823 47.3177C27.2829 46.9184 27.0833 46.4236 27.0833 45.8333ZM28.125 11.4583C26.9791 11.4583 25.9982 11.0503 25.1823 10.2344C24.3663 9.4184 23.9583 8.4375 23.9583 7.29167C23.9583 6.14583 24.3663 5.16493 25.1823 4.34896C25.9982 3.53299 26.9791 3.125 28.125 3.125C29.2708 3.125 30.2517 3.53299 31.0677 4.34896C31.8836 5.16493 32.2916 6.14583 32.2916 7.29167C32.2916 8.4375 31.8836 9.4184 31.0677 10.2344C30.2517 11.0503 29.2708 11.4583 28.125 11.4583Z" fill="#3C3C3C"/>
</svg>
