<?xml version="1.0" encoding="iso-8859-1"?>
<!-- Generator: Adobe Illustrator 19.1.0, SVG Export Plug-In . SVG Version: 6.00 Build 0)  -->
<svg version="1.1" id="Capa_1" xmlns="http://www.w3.org/2000/svg" xmlns:xlink="http://www.w3.org/1999/xlink" x="0px" y="0px"
	 viewBox="0 0 440 440" style="enable-background:new 0 0 440 440;" xml:space="preserve">
<g>
	<path id="rect4665" style="fill:#222222;" d="M220,10.95c-84.844,0.006-156.626,3.691-168.209,8.635
		c-0.219,0.078-0.438,0.163-0.656,0.256c-0.108,0.046-0.211,0.092-0.309,0.139C41.606,23.915,35.012,40.194,35,59.05v40H25H5
		c-2.761,0-5,2.239-5,5v10v60c0,2.761,2.239,5,5,5h20c2.761,0,5-2.239,5-5v-55h5v175h65c2.761,0,5,2.239,5,5v20c0,2.761-2.239,5-5,5
		H35v35c0.004,7.138,1.909,13.73,5,17.299v42.701c0.001,5.523,4.477,9.999,10,10h30c5.523-0.001,9.999-4.477,10-10v-30h260v30
		c0.001,5.523,4.477,9.999,10,10h30c5.523-0.001,9.999-4.477,10-10v-42.709c3.089-3.567,4.995-10.156,5-17.291v-35h-65
		c-2.761,0-5-2.239-5-5v-20c0-2.761,2.239-5,5-5h65v-175h5v55c0,2.761,2.239,5,5,5h20c2.761,0,5-2.239,5-5v-60v-10
		c0-2.761-2.239-5-5-5h-20h-10v-40c-0.01-19.453-7.016-36.071-16.602-39.377C377.488,14.69,305.414,10.956,220,10.95L220,10.95z
		 M65,29.05h310c5.523,0,10,11.193,10,25v20c0,2.761-2.239,5-5,5H60c-2.761,0-5-2.239-5-5v-20C55,40.243,59.477,29.05,65,29.05z
		 M55,89.05h330c5.523,0.001,9.999,4.477,10,10v150c-0.001,5.523-4.477,9.999-10,10h-39.576l-8.772-4.363l14.096,0.096
		c2.761,0.053,5.042-2.143,5.095-4.904s-2.143-5.042-4.904-5.095c-0.042-0.001-0.083-0.001-0.125-0.001l-152.48-1.025
		c-2.761-0.053-5.042,2.143-5.095,4.904s2.143,5.042,4.904,5.095c0.042,0.001,0.083,0.001,0.125,0.001l115.623,0.777l22.838,11.359
		c-0.571,0.102-1.149,0.154-1.729,0.156H105c-1.293-0.002-2.573-0.255-3.77-0.744l28.428-17.635l123.895-8.022
		c2.758-0.143,4.878-2.495,4.735-5.253c-0.139-2.672-2.356-4.761-5.032-4.741c-0.116,0.001-0.232,0.006-0.348,0.016L94.379,239.935
		c-2.759,0.13-4.89,2.471-4.76,5.23c0.13,2.759,2.471,4.89,5.23,4.76c0.059-0.003,0.118-0.007,0.177-0.011l13.451-0.871
		L92.344,259.05H55c-5.523-0.001-9.999-4.477-10-10v-150C45,93.527,49.477,89.05,55,89.05L55,89.05z"/>
</g>
<g>
</g>
<g>
</g>
<g>
</g>
<g>
</g>
<g>
</g>
<g>
</g>
<g>
</g>
<g>
</g>
<g>
</g>
<g>
</g>
<g>
</g>
<g>
</g>
<g>
</g>
<g>
</g>
<g>
</g>
</svg>
