<svg width="47" height="43" viewBox="0 0 47 43" fill="none" xmlns="http://www.w3.org/2000/svg">
<path d="M23.5 43C22.9517 43 22.3935 42.8986 21.8256 42.6959C21.2577 42.4932 20.7583 42.1688 20.3275 41.7228L16.2738 37.8911C12.1221 33.958 8.37187 30.0554 5.02313 26.1832C1.67437 22.3109 0 18.0434 0 13.3805C0 9.56907 1.23375 6.38614 3.70125 3.83168C6.16875 1.27723 9.24333 0 12.925 0C15.0008 0 16.9592 0.456153 18.8 1.36846C20.6408 2.28076 22.2075 3.52758 23.5 5.10891C24.7925 3.52758 26.3592 2.28076 28.2 1.36846C30.0408 0.456153 31.9992 0 34.075 0C37.7567 0 40.8312 1.27723 43.2987 3.83168C45.7663 6.38614 47 9.56907 47 13.3805C47 18.0434 45.3354 22.3211 42.0062 26.2136C38.6771 30.1061 34.8975 34.0189 30.6675 37.9519L26.6725 41.7228C26.2417 42.1688 25.7423 42.4932 25.1744 42.6959C24.6065 42.8986 24.0483 43 23.5 43Z" fill="#494949"/>
</svg>
