<svg version="1.1" xmlns="http://www.w3.org/2000/svg" xmlns:xlink="http://www.w3.org/1999/xlink" width="20" height="25" viewBox="0 0 20 25"><path id="Stationery" d="M3.457,25.000 C3.029,24.898 2.605,24.788 2.245,24.512 C1.548,23.979 1.229,23.263 1.229,22.393 C1.228,19.199 1.228,16.005 1.228,12.811 C1.228,12.359 1.229,11.908 1.228,11.457 C1.226,11.004 1.313,10.898 1.789,10.812 C1.576,10.381 1.368,9.957 1.157,9.534 C0.934,9.084 0.679,8.646 0.494,8.181 C0.378,7.891 0.354,7.561 0.312,7.246 C0.199,6.403 0.088,5.560 0.004,4.715 C-0.011,4.567 0.071,4.369 0.177,4.261 C0.328,4.107 0.532,4.188 0.703,4.286 C1.484,4.733 2.252,5.204 3.049,5.619 C3.467,5.837 3.723,6.143 3.923,6.557 C4.586,7.930 5.275,9.290 5.959,10.653 C6.000,10.733 6.082,10.792 6.144,10.861 C6.167,10.846 6.190,10.831 6.212,10.816 C6.212,9.879 6.212,8.943 6.212,8.007 C6.212,5.533 6.215,3.059 6.208,0.585 C6.208,0.298 6.300,0.101 6.572,-0.000 C8.285,-0.000 9.998,-0.000 11.711,-0.000 C11.958,0.140 12.024,0.356 12.023,0.631 C12.017,3.756 12.019,6.881 12.019,10.006 C12.019,10.074 12.019,10.142 12.019,10.275 C12.090,10.175 12.132,10.127 12.161,10.074 C12.854,8.813 13.544,7.551 14.239,6.292 C14.307,6.168 14.335,6.079 14.228,5.947 C13.581,5.146 13.570,4.167 14.185,3.310 C14.407,3.001 14.641,2.700 14.860,2.388 C15.215,1.881 15.224,1.361 14.913,0.826 C14.846,0.711 14.791,0.568 14.792,0.438 C14.794,0.209 15.015,0.054 15.281,0.100 C15.827,0.196 16.315,0.439 16.754,0.772 C18.256,1.911 18.697,4.122 17.746,5.753 C17.458,6.247 17.029,6.563 16.475,6.713 C16.382,6.738 16.262,6.811 16.230,6.892 C15.738,8.168 15.257,9.450 14.774,10.730 C14.765,10.754 14.766,10.781 14.763,10.807 C15.275,10.911 15.339,10.988 15.343,11.511 C15.345,11.830 15.343,12.150 15.343,12.510 C15.703,12.510 16.047,12.490 16.388,12.513 C17.543,12.590 18.471,13.080 19.052,14.108 C20.061,15.897 19.364,18.580 16.917,19.084 C16.631,19.142 16.334,19.147 16.041,19.162 C15.818,19.174 15.595,19.165 15.342,19.165 C15.342,19.547 15.345,19.908 15.341,20.270 C15.330,21.137 15.356,22.007 15.292,22.870 C15.214,23.934 14.343,24.797 13.285,24.953 C13.227,24.962 13.170,24.984 13.113,25.000 C9.894,25.000 6.676,25.000 3.457,25.000 zM14.518,11.681 C10.345,11.681 6.207,11.681 2.051,11.681 C2.051,11.758 2.051,11.818 2.051,11.877 C2.052,15.383 2.049,18.889 2.053,22.395 C2.054,23.487 2.759,24.171 3.853,24.169 C5.696,24.168 7.538,24.170 9.380,24.171 C10.505,24.171 11.630,24.175 12.754,24.169 C13.851,24.165 14.509,23.499 14.518,22.395 C14.519,22.274 14.517,22.152 14.517,22.031 C14.518,19.505 14.518,16.980 14.518,14.455 C14.519,13.536 14.518,12.618 14.518,11.681 zM7.053,0.838 C7.053,4.184 7.053,7.502 7.053,10.817 C8.442,10.817 9.811,10.817 11.175,10.817 C11.175,10.255 11.175,9.714 11.175,9.162 C10.765,9.162 10.376,9.168 9.987,9.160 C9.738,9.156 9.553,8.984 9.544,8.773 C9.536,8.558 9.702,8.376 9.947,8.343 C10.032,8.331 10.120,8.337 10.206,8.337 C10.531,8.337 10.856,8.337 11.176,8.337 C11.176,7.759 11.176,7.217 11.176,6.663 C10.517,6.663 9.878,6.664 9.239,6.662 C8.912,6.661 8.710,6.500 8.716,6.251 C8.722,5.998 8.917,5.842 9.242,5.838 C9.466,5.834 9.691,5.837 9.916,5.837 C10.337,5.836 10.757,5.837 11.178,5.837 C11.178,5.539 11.178,5.276 11.178,4.995 C10.763,4.995 10.366,5.002 9.970,4.993 C9.737,4.987 9.558,4.816 9.545,4.615 C9.531,4.408 9.683,4.225 9.913,4.182 C9.989,4.167 10.068,4.171 10.146,4.171 C10.488,4.170 10.832,4.171 11.177,4.171 C11.177,3.876 11.177,3.613 11.177,3.330 C11.056,3.330 10.953,3.330 10.851,3.330 C10.297,3.330 9.744,3.332 9.190,3.330 C8.927,3.329 8.729,3.164 8.714,2.946 C8.698,2.710 8.880,2.527 9.158,2.506 C9.262,2.498 9.366,2.503 9.470,2.503 C10.037,2.503 10.605,2.503 11.179,2.503 C11.179,1.930 11.179,1.389 11.179,0.838 C9.798,0.838 8.434,0.838 7.053,0.838 zM15.350,18.335 C15.677,18.335 15.978,18.347 16.278,18.332 C17.260,18.282 18.037,17.876 18.437,16.940 C18.847,15.978 18.772,15.033 18.114,14.197 C17.398,13.288 16.385,13.281 15.350,13.347 C15.350,15.012 15.350,16.656 15.350,18.335 zM15.943,1.234 C16.067,2.141 15.622,2.797 15.125,3.432 C15.045,3.534 14.965,3.637 14.889,3.742 C14.216,4.670 14.611,5.672 15.739,5.897 C16.314,6.012 16.797,5.811 17.061,5.282 C17.216,4.971 17.334,4.625 17.389,4.282 C17.557,3.221 17.091,1.874 15.943,1.234 zM5.128,10.836 C4.452,9.480 3.800,8.174 3.141,6.852 C2.570,7.234 2.026,7.602 1.478,7.963 C1.367,8.037 1.359,8.104 1.418,8.219 C1.831,9.038 2.235,9.862 2.651,10.680 C2.686,10.749 2.786,10.828 2.856,10.829 C3.597,10.840 4.339,10.836 5.128,10.836 zM15.037,6.541 C14.250,7.976 13.473,9.390 12.679,10.837 C13.022,10.837 13.315,10.826 13.607,10.841 C13.790,10.850 13.882,10.795 13.945,10.614 C14.153,10.026 14.382,9.447 14.602,8.863 C14.873,8.144 15.144,7.424 15.421,6.687 C15.293,6.639 15.182,6.596 15.037,6.541 zM2.520,6.277 C1.975,5.965 1.461,5.671 0.903,5.351 C0.984,5.988 1.059,6.573 1.138,7.198 C1.618,6.878 2.055,6.587 2.520,6.277 z" fill="#757575" /></svg>