<svg width="47" height="42" viewBox="0 0 47 42" fill="none" xmlns="http://www.w3.org/2000/svg">
<path d="M23.5 42C22.9517 42 22.3935 41.901 21.8256 41.703C21.2577 41.505 20.7583 41.1881 20.3275 40.7525L16.2738 37.0099C12.1221 33.1683 8.37187 29.3564 5.02313 25.5743C1.67437 21.7921 0 17.6238 0 13.0693C0 9.34653 1.23375 6.23762 3.70125 3.74257C6.16875 1.24752 9.24333 0 12.925 0C15.0008 0 16.9592 0.445545 18.8 1.33663C20.6408 2.22772 22.2075 3.44554 23.5 4.9901C24.7925 3.44554 26.3592 2.22772 28.2 1.33663C30.0408 0.445545 31.9992 0 34.075 0C37.7567 0 40.8312 1.24752 43.2987 3.74257C45.7663 6.23762 47 9.34653 47 13.0693C47 17.6238 45.3354 21.802 42.0062 25.604C38.6771 29.4059 34.8975 33.2277 30.6675 37.0693L26.6725 40.7525C26.2417 41.1881 25.7423 41.505 25.1744 41.703C24.6065 41.901 24.0483 42 23.5 42ZM21.2675 9.74257C20.1317 8.11881 18.9175 6.88119 17.625 6.0297C16.3325 5.17822 14.7658 4.75248 12.925 4.75248C10.575 4.75248 8.61667 5.54455 7.05 7.12871C5.48333 8.71287 4.7 10.6931 4.7 13.0693C4.7 15.1287 5.42458 17.3168 6.87375 19.6337C8.32292 21.9505 10.056 24.198 12.0731 26.3762C14.0902 28.5545 16.166 30.5941 18.3006 32.495C20.4352 34.396 22.1683 35.9604 23.5 37.1881C24.8317 35.9604 26.5648 34.396 28.6994 32.495C30.834 30.5941 32.9098 28.5545 34.9269 26.3762C36.944 24.198 38.6771 21.9505 40.1263 19.6337C41.5754 17.3168 42.3 15.1287 42.3 13.0693C42.3 10.6931 41.5167 8.71287 39.95 7.12871C38.3833 5.54455 36.425 4.75248 34.075 4.75248C32.2342 4.75248 30.6675 5.17822 29.375 6.0297C28.0825 6.88119 26.8683 8.11881 25.7325 9.74257C25.4583 10.1386 25.1254 10.4356 24.7337 10.6337C24.3421 10.8317 23.9308 10.9307 23.5 10.9307C23.0692 10.9307 22.6579 10.8317 22.2663 10.6337C21.8746 10.4356 21.5417 10.1386 21.2675 9.74257Z" fill="#494949"/>
</svg>
