<svg width="30" height="30" viewBox="0 0 30 30" fill="none" xmlns="http://www.w3.org/2000/svg">
<path d="M8.75 21.25V8.75C8.75 8.39583 8.86979 8.09896 9.10938 7.85938C9.34896 7.61979 9.64583 7.5 10 7.5C10.3542 7.5 10.651 7.61979 10.8906 7.85938C11.1302 8.09896 11.25 8.39583 11.25 8.75V21.25C11.25 21.6042 11.1302 21.901 10.8906 22.1406C10.651 22.3802 10.3542 22.5 10 22.5C9.64583 22.5 9.34896 22.3802 9.10938 22.1406C8.86979 21.901 8.75 21.6042 8.75 21.25ZM13.75 26.25V3.75C13.75 3.39583 13.8698 3.09896 14.1094 2.85938C14.349 2.61979 14.6458 2.5 15 2.5C15.3542 2.5 15.651 2.61979 15.8906 2.85938C16.1302 3.09896 16.25 3.39583 16.25 3.75V26.25C16.25 26.6042 16.1302 26.901 15.8906 27.1406C15.651 27.3802 15.3542 27.5 15 27.5C14.6458 27.5 14.349 27.3802 14.1094 27.1406C13.8698 26.901 13.75 26.6042 13.75 26.25ZM3.75 16.25V13.75C3.75 13.3958 3.86979 13.099 4.10938 12.8594C4.34896 12.6198 4.64583 12.5 5 12.5C5.35417 12.5 5.65104 12.6198 5.89062 12.8594C6.13021 13.099 6.25 13.3958 6.25 13.75V16.25C6.25 16.6042 6.13021 16.901 5.89062 17.1406C5.65104 17.3802 5.35417 17.5 5 17.5C4.64583 17.5 4.34896 17.3802 4.10938 17.1406C3.86979 16.901 3.75 16.6042 3.75 16.25ZM18.75 21.25V8.75C18.75 8.39583 18.8698 8.09896 19.1094 7.85938C19.349 7.61979 19.6458 7.5 20 7.5C20.3542 7.5 20.651 7.61979 20.8906 7.85938C21.1302 8.09896 21.25 8.39583 21.25 8.75V21.25C21.25 21.6042 21.1302 21.901 20.8906 22.1406C20.651 22.3802 20.3542 22.5 20 22.5C19.6458 22.5 19.349 22.3802 19.1094 22.1406C18.8698 21.901 18.75 21.6042 18.75 21.25ZM23.75 16.25V13.75C23.75 13.3958 23.8698 13.099 24.1094 12.8594C24.349 12.6198 24.6458 12.5 25 12.5C25.3542 12.5 25.651 12.6198 25.8906 12.8594C26.1302 13.099 26.25 13.3958 26.25 13.75V16.25C26.25 16.6042 26.1302 16.901 25.8906 17.1406C25.651 17.3802 25.3542 17.5 25 17.5C24.6458 17.5 24.349 17.3802 24.1094 17.1406C23.8698 16.901 23.75 16.6042 23.75 16.25Z" fill="#3C3C3C"/>
</svg>
