<svg width="50" height="50" viewBox="0 0 50 50" fill="none" xmlns="http://www.w3.org/2000/svg">
<path d="M25 25V4.16665C25 3.57637 25.1997 3.08158 25.599 2.68227C25.9983 2.28297 26.4931 2.08331 27.0834 2.08331C27.6737 2.08331 28.1684 2.28297 28.5678 2.68227C28.9671 3.08158 29.1667 3.57637 29.1667 4.16665V25H25ZM16.6667 25V6.24998C16.6667 5.6597 16.8664 5.16491 17.2657 4.7656C17.665 4.3663 18.1598 4.16665 18.75 4.16665C19.3403 4.16665 19.8351 4.3663 20.2344 4.7656C20.6337 5.16491 20.8334 5.6597 20.8334 6.24998V25H16.6667ZM26.0417 47.9166C21.1112 47.9166 16.9271 46.1979 13.4896 42.7604C10.0521 39.3229 8.33337 35.1389 8.33337 30.2083V10.4166C8.33337 9.82637 8.53303 9.33158 8.93233 8.93227C9.33164 8.53297 9.82643 8.33331 10.4167 8.33331C11.007 8.33331 11.5018 8.53297 11.9011 8.93227C12.3004 9.33158 12.5 9.82637 12.5 10.4166V30.2083C12.5 33.993 13.8108 37.1962 16.4323 39.8177C19.0539 42.4392 22.257 43.75 26.0417 43.75C29.8264 43.75 33.0296 42.4392 35.6511 39.8177C38.2726 37.1962 39.5834 33.993 39.5834 30.2083V22.9166C38.9931 22.9166 38.4983 23.1163 38.099 23.5156C37.6997 23.9149 37.5 24.4097 37.5 25V33.3333H31.25C30.1042 33.3333 29.1233 33.7413 28.3073 34.5573C27.4914 35.3732 27.0834 36.3541 27.0834 37.5V39.5833H22.9167V37.5C22.9167 35.2083 23.7327 33.2465 25.3646 31.6146C26.9966 29.9826 28.9584 29.1666 31.25 29.1666H33.3334V8.33331C33.3334 7.74304 33.533 7.24824 33.9323 6.84894C34.3316 6.44963 34.8264 6.24998 35.4167 6.24998C36.007 6.24998 36.5018 6.44963 36.9011 6.84894C37.3004 7.24824 37.5 7.74304 37.5 8.33331V19.1146C37.8473 19.0104 38.1858 18.9236 38.5157 18.8541C38.8455 18.7847 39.2014 18.75 39.5834 18.75H43.75V30.2083C43.75 35.1389 42.0313 39.3229 38.5938 42.7604C35.1563 46.1979 30.9723 47.9166 26.0417 47.9166Z" fill="#494949"/>
</svg>
