<svg width="50" height="50" viewBox="0 0 50 50" fill="none" xmlns="http://www.w3.org/2000/svg">
<path d="M24.9938 5.20831C27.733 5.20831 30.3013 5.72845 32.6985 6.76873C35.0957 7.80901 37.1903 9.22533 38.9823 11.0177C40.7747 12.8097 42.191 14.9036 43.2313 17.2995C44.2716 19.6949 44.7917 22.2639 44.7917 25.0062C44.7917 27.7156 44.2716 30.2743 43.2313 32.6823C42.191 35.0903 40.7747 37.1903 38.9823 38.9823C37.1903 40.7746 35.0964 42.1909 32.7006 43.2312C30.3051 44.2715 27.7362 44.7916 24.9938 44.7916C22.2844 44.7916 19.7266 44.2725 17.3204 43.2343C14.9144 42.1962 12.8134 40.779 11.0172 38.9828C9.22105 37.1866 7.80386 35.0856 6.76567 32.6797C5.72747 30.2734 5.20837 27.7156 5.20837 25.0062C5.20837 22.2639 5.72851 19.6949 6.76879 17.2995C7.80907 14.9036 9.22539 12.8097 11.0177 11.0177C12.8098 9.22533 14.9105 7.80901 17.3198 6.76873C19.7292 5.72845 22.2872 5.20831 24.9938 5.20831ZM25 41.6666C29.6181 41.6666 33.5504 40.0434 36.7969 36.7969C40.0434 33.5503 41.6667 29.618 41.6667 25C41.6667 20.3819 40.0434 16.4496 36.7969 13.2031C33.5504 9.95658 29.6181 8.33331 25 8.33331C20.382 8.33331 16.4497 9.95658 13.2032 13.2031C9.95664 16.4496 8.33337 20.3819 8.33337 25C8.33337 29.618 9.95664 33.5503 13.2032 36.7969C16.4497 40.0434 20.382 41.6666 25 41.6666ZM21.1537 15.3849C21.1537 16.4505 21.5283 17.3578 22.2776 18.1068C23.0269 18.8561 23.9344 19.2307 25 19.2307C26.0657 19.2307 26.9731 18.8561 27.7224 18.1068C28.4717 17.3578 28.8464 16.4505 28.8464 15.3849C28.8464 14.3189 28.4717 13.4114 27.7224 12.6625C26.9731 11.9132 26.0657 11.5385 25 11.5385C23.9344 11.5385 23.0269 11.9132 22.2776 12.6625C21.5283 13.4114 21.1537 14.3189 21.1537 15.3849ZM24.9969 21.1536C22.8809 21.1536 20.9101 21.5003 19.0844 22.1937C17.2591 22.8868 16.3464 24.1451 16.3464 25.9687V33.6469C16.3464 35.4705 17.2606 36.718 19.0891 37.3896C20.9176 38.0614 22.8903 38.3974 25.0073 38.3974C25.5528 38.3974 26.0084 38.213 26.374 37.8442C26.74 37.4758 26.923 37.0192 26.923 36.4745C26.923 35.9293 26.7388 35.4725 26.3704 35.1041C26.0016 34.7354 25.5448 34.551 25 34.551C24.3455 34.5646 23.7065 34.5159 23.0829 34.4052C22.4592 34.2941 21.8551 34.1064 21.2704 33.8422C20.9283 33.6953 20.7085 33.4562 20.611 33.125C20.5134 32.7937 20.5728 32.496 20.7891 32.2317C21.3377 31.6793 21.983 31.2974 22.725 31.0859C23.4674 30.8748 24.2257 30.7692 25 30.7692C26.1778 30.7692 27.2735 30.9649 28.287 31.3562C29.3009 31.7475 29.8078 32.4519 29.8078 33.4692V35.2604C29.8078 35.6451 29.9436 35.9816 30.2151 36.2698C30.4867 36.5583 30.8143 36.7026 31.198 36.7026C31.9431 36.7026 32.5388 36.3894 32.9849 35.763C33.4308 35.1366 33.6537 34.4335 33.6537 33.6536V25.9703C33.6537 24.1456 32.74 22.8868 30.9125 22.1937C29.0851 21.5003 27.1132 21.1536 24.9969 21.1536ZM24.9974 29.8078C24.3235 29.8078 23.7547 29.5752 23.2912 29.1099C22.828 28.6446 22.5964 28.075 22.5964 27.401C22.5964 26.7271 22.829 26.1585 23.2943 25.6953C23.7596 25.2317 24.329 25 25.0026 25C25.6766 25 26.2454 25.2326 26.7089 25.6979C27.1721 26.1632 27.4037 26.7328 27.4037 27.4067C27.4037 28.0804 27.171 28.6489 26.7058 29.1125C26.2405 29.576 25.671 29.8078 24.9974 29.8078Z" fill="#494949"/>
</svg>
